<?xml version="1.0" standalone="no"?>
<!DOCTYPE svg PUBLIC "-//W3C//DTD SVG 20010904//EN"
 "http://www.w3.org/TR/2001/REC-SVG-20010904/DTD/svg10.dtd">
<svg version="1.0" xmlns="http://www.w3.org/2000/svg"
 width="1215.000000pt" height="405.000000pt" viewBox="0 0 1215.000000 405.000000"
 preserveAspectRatio="xMidYMid meet">
<metadata>
Created by potrace 1.16, written by Peter Selinger 2001-2019
</metadata>
<g transform="translate(0.000000,405.000000) scale(0.100000,-0.100000)"
fill="#000000" stroke="none">
<path d="M720 3505 c-6 -7 -10 -559 -10 -1463 l0 -1452 1418 -1 c779 -1 1435
0 1457 1 22 1 43 7 47 13 11 18 9 2879 -2 2897 -8 13 -181 15 -1455 16 -1076
0 -1448 -3 -1455 -11z m1858 -1048 c12 -14 14 -98 12 -532 0 -145 -4 -267 -10
-275 -8 -13 -65 -15 -410 -15 -324 0 -401 3 -405 13 -8 20 -6 808 2 815 3 4
185 7 403 7 313 0 400 -3 408 -13z"/>
<path d="M4303 3508 c-8 -14 -12 -2917 -3 -2919 17 -5 209 -8 225 -4 17 4 23
17 33 75 7 39 12 90 12 115 0 24 4 55 10 69 5 13 12 60 15 102 9 119 36 136
80 52 53 -102 129 -196 232 -289 139 -126 361 -204 578 -203 180 0 293 27 464
111 100 50 124 67 211 152 92 90 169 193 204 272 8 19 26 59 39 89 99 222 117
606 39 860 -9 30 -17 60 -18 65 -1 14 -22 67 -34 87 -6 10 -10 22 -10 28 0 14
-89 159 -129 210 -102 129 -232 222 -416 299 -36 16 -109 34 -165 43 -261 40
-504 -6 -684 -129 -117 -80 -238 -208 -286 -302 -28 -55 -48 -77 -61 -64 -5 5
-10 272 -11 648 l-3 640 -157 3 c-118 2 -158 -1 -165 -10z m1267 -1081 c93
-11 283 -123 362 -213 111 -126 187 -282 208 -424 20 -139 21 -181 6 -287 -20
-135 -34 -183 -91 -295 -152 -301 -484 -465 -788 -389 -182 45 -312 136 -435
303 -23 31 -42 61 -42 65 0 4 -11 30 -25 58 -76 157 -103 355 -70 528 9 51 21
100 26 109 5 10 9 24 9 31 0 19 62 144 102 207 33 52 122 145 178 188 61 46
211 113 280 125 28 5 227 1 280 -6z"/>
<path d="M6781 3506 c-9 -10 -11 -371 -11 -1464 1 -1291 3 -1451 16 -1456 23
-9 297 -7 312 2 10 7 12 307 10 1468 l-3 1459 -156 3 c-125 2 -159 0 -168 -12z"/>
<path d="M10435 2730 c-16 -4 -49 -8 -72 -9 -24 0 -60 -7 -80 -15 -21 -7 -56
-19 -78 -26 -39 -12 -160 -68 -200 -93 -70 -43 -141 -103 -216 -184 -96 -102
-211 -321 -233 -443 -3 -14 -9 -39 -14 -56 -11 -34 -26 -216 -26 -299 1 -181
40 -355 116 -508 35 -71 49 -94 98 -161 38 -52 171 -178 230 -217 150 -101
332 -170 530 -200 104 -16 391 -17 440 -1 19 6 55 13 80 15 122 12 332 93 463
180 l57 39 0 149 c0 82 -3 149 -6 149 -3 0 -25 -13 -48 -28 -38 -26 -183 -99
-251 -127 -113 -47 -353 -95 -474 -95 -87 0 -273 25 -331 45 -90 31 -151 61
-233 112 -147 93 -247 219 -291 368 -10 33 -22 67 -25 75 -8 15 -15 118 -9
122 2 2 397 5 878 8 l875 5 -1 70 c-2 255 -28 377 -118 570 -91 193 -248 356
-436 450 -76 38 -237 88 -330 102 -79 12 -254 14 -295 3z m230 -294 c155 -16
357 -130 445 -253 63 -87 104 -170 130 -266 17 -62 19 -81 10 -93 -11 -12
-110 -14 -675 -14 -365 0 -670 3 -679 6 -9 3 -16 16 -16 29 0 28 27 120 46
158 8 16 14 33 14 38 0 5 11 27 25 49 14 22 25 44 25 49 0 6 10 21 23 34 12
13 44 47 71 76 70 75 192 145 301 173 40 10 166 24 195 22 8 0 47 -4 85 -8z"/>
<path d="M7425 2649 c-12 -18 -5 -1469 7 -1517 36 -152 79 -259 132 -332 143
-193 350 -293 611 -293 241 -1 422 69 573 219 34 35 62 67 62 72 0 4 8 17 19
28 10 11 35 55 55 97 26 56 41 77 55 77 21 0 26 -16 36 -115 3 -33 10 -80 16
-105 5 -25 11 -58 13 -75 17 -132 10 -126 161 -122 l100 3 0 1034 0 1035 -154
3 c-101 2 -158 -1 -167 -9 -10 -9 -14 -138 -16 -687 -3 -747 3 -668 -66 -812
-70 -145 -166 -228 -357 -311 -90 -39 -324 -36 -420 5 -16 7 -46 19 -65 26
-91 35 -194 158 -233 277 -36 109 -38 154 -37 826 1 367 -2 672 -5 677 -8 13
-312 12 -320 -1z"/>
</g>
</svg>
